{"title":"Frankie.and.Alice.2010.DvDScr.x264.Feel-Free","uid":6113123,"size":1252548812,"categoryP":"video","categoryS":"movies","magnet":"?xt=urn:btih:2830b60fc5cb87cbfddb7d0524a226af33a61420&amp;dn=Frankie.and.Alice.2010.DvDScr.x264.Feel-Free&amp;tr=udp%3A%2F%2Ftracker.openbittorrent.com%3A80&amp;tr=udp%3A%2F%2Fopen.demonii.com%3A1337&amp;tr=udp%3A%2F%2Ftracker.coppersurfer.tk%3A6969&amp;tr=udp%3A%2F%2Fexodus.desync.com%3A6969","seeders":0,"leechers":1,"uploader":"SaM","files":8,"time":1295438257,"description":"Genre:Drama\nLanguage:English\nIMDb:http://www.imdb.com/title/tt1221208/\nSource:DvDScr Thx\n\n\nFormat : Matroska\nFile size : 1.17 GiB\nDuration : 1h 41mn\nOverall bit rate : 1 645 Kbps\n\n\nVideo\nFormat settings, CABAC : Yes\nFormat settings, ReFrames : 4 frames\nCodec ID : V_MPEG4/ISO/AVC\nDuration : 1h 41mn\nBit rate : 1 200 Kbps\nWidth : 720 pixels\nHeight : 304 pixels\nDisplay aspect ratio : 2.35:1\nFrame rate mode : Variable\nFrame rate : 23.976 fps\nColor space : YUV\nChroma subsampling : 4:2:0\nBit depth : 8 bits\nScan type : Progressive\nBits/(Pixel*Frame) : 0.229\nStream size : 845 MiB (71%)\nWriting library : x264\n\n\nAudio\nID : 2\nFormat : AC-3\nFormat/Info : Audio Coding 3\nMode extension : CM (complete main)\nCodec ID : A_AC3\nDuration : 1h 41mn\nBit rate mode : Constant\nBit rate : 448 Kbps\nChannel(s) : 6 channels\nChannel positions : Front: L C R, Side: L R, LFE\nSampling rate : 48.0 KHz\nBit depth : 16 bits\nVideo delay : -1mn 5s\nStream size : 325 MiB (27%)\nLanguage : English\n\n\n\nPlot:\nA drama centered on a young woman with multiple personality disorder who struggles to remain her true self and not give in to her racist alter-personality\n\n &lt;a href=&quot;\nhttp://shareimage.org/images/j5i8v7v5bwku08g6c9.png&quot; rel=&quot;nofollow&quot; target=&quot;_NEW&quot;&gt;\nhttp://shareimage.org/images/j5i8v7v5bwku08g6c9.png&lt;/a&gt;\n &lt;a href=&quot;\nhttp://shareimage.org/images/ad5tqcr88fhuetgqe70.png&quot; rel=&quot;nofollow&quot; target=&quot;_NEW&quot;&gt;\nhttp://shareimage.org/images/ad5tqcr88fhuetgqe70.png&lt;/a&gt;\n &lt;a href=&quot;\nhttp://shareimage.org/images/00464azczp5y87ruxl9.png&quot; rel=&quot;nofollow&quot; target=&quot;_NEW&quot;&gt;\nhttp://shareimage.org/images/00464azczp5y87ruxl9.png&lt;/a&gt;\n &lt;a href=&quot;\nhttp://shareimage.org/images/i7n8eqz9qskifmisl5rt.png&quot; rel=&quot;nofollow&quot; target=&quot;_NEW&quot;&gt;\nhttp://shareimage.org/images/i7n8eqz9qskifmisl5rt.png&lt;/a&gt;\n\nGreets:\n\nINK,CRYS,IMAGINE,LKRG,FXG,3Li,FLAWL3SS,TA,iLLUSiON,ViSiON,LU,TheFalcon007,PrisM,Noir,WBZ,LAP,Rx,Kingdom,SAFCuk009+Fabreezy,HDLiTE,TWiZTED,ExtraTorrentRG.ELEKTRI4KA,MAGNAT,CM8\nAnd to all the other p2p grps past and present\n\n\n\n\nMake sure its a real Feel-Free release @ extratorrent","torrent":{"xt":"urn:btih:2830b60fc5cb87cbfddb7d0524a226af33a61420","amp;dn":"Frankie.and.Alice.2010.DvDScr.x264.Feel-Free","amp;tr":["udp%3A%2F%2Ftracker.openbittorrent.com%3A80","udp%3A%2F%2Fopen.demonii.com%3A1337","udp%3A%2F%2Ftracker.coppersurfer.tk%3A6969","udp%3A%2F%2Fexodus.desync.com%3A6969"],"infoHash":"2830b60fc5cb87cbfddb7d0524a226af33a61420","infoHashBuffer":{"type":"Buffer","data":[40,48,182,15,197,203,135,203,253,219,125,5,36,162,38,175,51,166,20,32]},"announce":[],"urlList":[]}}